<?xml version="1.0" encoding="utf-8"?>
<!-- Generator: Adobe Illustrator 25.0.1, SVG Export Plug-In . SVG Version: 6.00 Build 0)  -->
<svg version="1.1" id="Capa_1" xmlns="http://www.w3.org/2000/svg" xmlns:xlink="http://www.w3.org/1999/xlink" x="0px" y="0px"
	 viewBox="0 0 442.2 442.2" style="enable-background:new 0 0 442.2 442.2;" xml:space="preserve">
<style type="text/css">
	.st0{fill:#FFFFFF;}
</style>
<g>
	<g>
		<path class="st0" d="M212.4,81.1L97.1,330.9c-1.8,4-0.7,8.7,2.7,11.5c3.4,2.8,8.3,2.9,11.8,0.2l109.5-82.1l109.5,82.1
			c3.5,2.7,8.4,2.6,11.8-0.2c2.3-1.9,3.6-4.6,3.6-7.5c0-1.4-0.3-2.7-0.9-4L229.8,81.2c-1.6-3.4-5-5.6-8.7-5.6S214,77.7,212.4,81.1z"
			/>
	</g>
</g>
<path class="st0" d="M221.1,18c27.4,0,54,5.4,79.1,16c24.2,10.2,45.9,24.9,64.6,43.5c18.7,18.7,33.3,40.4,43.5,64.6
	c10.6,25,16,51.6,16,79.1s-5.4,54-16,79.1c-10.2,24.2-24.9,45.9-43.5,64.6c-18.7,18.7-40.4,33.3-64.6,43.5c-25,10.6-51.6,16-79.1,16
	s-54-5.4-79.1-16c-24.2-10.2-45.9-24.9-64.6-43.5S44.2,324.4,34,300.2c-10.6-25-16-51.6-16-79.1s5.4-54,16-79.1
	c10.2-24.2,24.9-45.9,43.5-64.6c18.7-18.7,40.4-33.3,64.6-43.5C167.1,23.4,193.7,18,221.1,18 M221.1,0C99,0,0,99,0,221.1
	s99,221.1,221.1,221.1s221.1-99,221.1-221.1S343.2,0,221.1,0L221.1,0z"/>
</svg>
